<svg width="167" height="29" viewBox="0 0 167 29" fill="none" xmlns="http://www.w3.org/2000/svg">
<path d="M14.1238 -3.05176e-05C6.32422 -3.05176e-05 0 6.36925 0 14.2226C0 22.0775 6.32422 28.4453 14.1238 28.4453C21.9278 28.4453 28.252 22.0775 28.252 14.2226C28.252 6.36925 21.9278 -3.05176e-05 14.1238 -3.05176e-05Z" fill="#E64414"/>
<path d="M14.1238 26.9087C11.385 26.9087 9.16321 24.6715 9.16321 21.9109C9.16321 19.1518 11.385 16.9132 14.1238 16.9132C16.867 16.9132 19.0903 19.1518 19.0903 21.9109C19.0903 24.6715 16.867 26.9087 14.1238 26.9087Z" fill="white"/>
<path d="M51.8063 1.484L31.4207 1.484L31.1462 7.66465H32.1453L32.157 7.50966C32.3791 4.73297 33.673 3.4404 36.2245 3.4404H39.7678V21.8303C39.7678 25.0149 39.7678 25.7724 36.4118 25.7724H36.2448V26.7856L47.1405 26.7856V25.7724H46.9749C43.6204 25.7724 43.6204 25.0149 43.6204 21.8303V3.4404L47.1623 3.4404C49.7152 3.4404 51.0076 4.73297 51.2298 7.50966L51.2429 7.66465H52.242L51.9646 1.484H51.8063Z" fill="#272727"/>
<path d="M74.0159 1.484L54.824 1.484V2.49729H54.9895C58.344 2.49729 58.344 3.2547 58.344 6.4408V21.8303C58.344 25.0149 58.344 25.7724 54.9895 25.7724H54.824V26.7856L74.3238 26.7856L76.5354 20.1912H75.4957L75.4477 20.2731C73.5033 23.6259 72.3198 25.0924 69.1482 25.0924H64.0525C62.5263 25.0924 62.1981 24.7883 62.1981 23.3758V14.4156H67.015C69.9309 14.4156 70.8981 14.6905 71.1943 17.9584L71.2059 18.112H72.1963V9.06689H71.203L71.1929 9.22334C70.978 12.4343 69.9368 12.7224 67.015 12.7224H62.1981V3.17721H68.3626C71.9335 3.17721 72.7641 3.5179 73.4423 7.14996L73.467 7.28741H74.5329L74.1727 1.484H74.0159Z" fill="#272727"/>
<path d="M99.6888 0.918182L99.6612 1.05563C99.5494 1.64928 99.1515 2.6538 98.363 2.6538C98.0595 2.6538 97.7095 2.47687 97.4263 2.33504L97.3523 2.2941C95.4485 1.35538 93.8467 0.957661 91.9967 0.957661C84.6632 0.957661 79.1348 6.83418 79.1348 14.6262C79.1348 22 84.2595 27.3516 91.3214 27.3516C96.0889 27.3516 99.2982 25.3484 101.732 20.8536L101.803 20.7176L100.98 20.1664L100.887 20.2994C98.6767 23.5265 96.6364 25.3952 92.7445 25.3952C90.6142 25.3952 83.6583 24.6173 83.6583 14.5867C83.6583 7.06375 86.8313 2.57338 92.1462 2.57338C96.2849 2.57338 99.0281 4.94065 100.302 9.61672L100.335 9.73662H101.199L100.617 0.918182H100.461H99.6888Z" fill="#272727"/>
<path d="M109.627 16.7214C109.812 16.293 113.403 7.89421 113.682 7.24354C113.956 7.8986 117.487 16.2959 117.665 16.7214H109.627ZM127.886 25.7724C125.369 25.67 124.624 23.8554 123.763 21.7484L123.612 21.3887L115.141 0.918129H114.247L105.29 22.0657C104.193 24.6421 103.467 25.5896 101.569 25.7724L101.42 25.7884V26.7856H109.54V25.787L109.389 25.7724C107.84 25.6481 106.656 25.4565 106.656 24.2809C106.656 23.5542 107.266 22.2514 107.465 21.8245C107.467 21.8201 108.686 18.9688 108.923 18.4117H118.296C118.375 18.6018 119.598 21.4428 119.598 21.4428L119.767 21.8493C120.07 22.5789 120.485 23.582 120.485 24.2429C120.485 25.303 119.88 25.6875 118.094 25.7724L117.938 25.7811V26.7856H128.044V25.7797L127.886 25.7724Z" fill="#272727"/>
<path d="M155.208 1.48427H146.389V2.49756H146.553C149.914 2.49756 149.914 3.25497 149.914 6.44107V19.9458C149.482 19.418 134.985 1.48427 134.985 1.48427H127.999V2.49756H128.165C130.504 2.49756 131.526 3.2696 132.904 4.99351V21.8306C132.904 25.0152 132.904 25.7726 129.55 25.7726H129.386V26.7859H138.368V25.7726H138.203C134.847 25.7726 134.847 25.0152 134.847 21.8306V7.34763C135.274 7.87401 150.933 27.2026 150.933 27.2026H151.854V6.44107C151.854 3.25497 151.854 2.49756 155.208 2.49756H155.374V1.48427H155.208Z" fill="#272727"/>
<path d="M166.222 22.032C166.222 24.7912 164.001 27.0283 161.26 27.0283C158.518 27.0283 156.296 24.7912 156.296 22.032C156.296 19.2729 158.518 17.0328 161.26 17.0328C164.001 17.0328 166.222 19.2729 166.222 22.032Z" fill="#E64414"/>
</svg>
