<svg width="22" height="21" viewBox="0 0 22 21" fill="none" xmlns="http://www.w3.org/2000/svg">
<path d="M20.9986 2.16529C21.0045 2.08012 20.9917 1.99471 20.961 1.91434C20.9302 1.83397 20.8821 1.76034 20.8197 1.698C20.7572 1.63565 20.6818 1.58592 20.5979 1.55187C20.5141 1.51781 20.4237 1.50016 20.3322 1.5H1.66782C1.57635 1.50004 1.48587 1.51761 1.40198 1.55162C1.31808 1.58563 1.24256 1.63537 1.18009 1.69774C1.11762 1.76011 1.06954 1.83379 1.03882 1.91421C1.00809 1.99464 0.995389 2.08009 1.00149 2.16529C1.15816 4.20191 2.02401 6.13482 3.467 7.66929C4.91 9.20375 6.85095 10.2556 8.99391 10.6644V18.8765C8.99396 18.995 9.03017 19.1111 9.09832 19.2111C9.16646 19.3111 9.26371 19.3909 9.37868 19.4411C9.49365 19.4914 9.62158 19.51 9.74748 19.4949C9.87339 19.4797 9.99207 19.4314 10.0896 19.3555L12.7621 17.2765C12.8374 17.2181 12.898 17.1449 12.9396 17.0621C12.9812 16.9793 13.0027 16.8889 13.0026 16.7975V10.6644C15.1463 10.2563 17.0881 9.20484 18.5318 7.67029C19.9755 6.13575 20.8418 4.20242 20.9986 2.16529V2.16529Z" stroke="#272727" stroke-width="2" stroke-linecap="round" stroke-linejoin="round"/>
</svg>
