<svg width="24" height="24" viewBox="0 0 24 24" fill="none" xmlns="http://www.w3.org/2000/svg">
<path fill-rule="evenodd" clip-rule="evenodd" d="M13.1132 2C18.0838 2 22.1132 6.02944 22.1132 11C22.1132 15.9706 18.0838 20 13.1132 20C11.2248 20 9.47219 19.4184 8.0248 18.4245C8.00002 18.4569 7.97206 18.4888 7.94167 18.5192L3.66002 22.8008C3.28027 23.1806 2.66457 23.1806 2.28482 22.8008C1.90506 22.4211 1.90506 21.8054 2.28482 21.4256L6.5502 17.1585C5.03891 15.5486 4.11324 13.3824 4.11324 11C4.11324 6.02944 8.14268 2 13.1132 2ZM13.1132 4C9.24725 4 6.11324 7.13401 6.11324 11C6.11324 14.866 9.24725 18 13.1132 18C16.9792 18 20.1132 14.866 20.1132 11C20.1132 7.13401 16.9792 4 13.1132 4Z" fill="#272727"/>
</svg>
